<mxfile host="app.diagrams.net" modified="2023-09-10T09:51:04.204Z" agent="Mozilla/5.0 (Macintosh; Intel Mac OS X 10_15_7) AppleWebKit/537.36 (KHTML, like Gecko) Chrome/116.0.0.0 Safari/537.36" etag="KaTFSR8zG2vqofenDmkf" version="21.7.4" type="github">
  <diagram name="17  BufferPool" id="JrhgLQUDVGxXoITb4NkF">
    <mxGraphModel dx="1841" dy="947" grid="0" gridSize="10" guides="1" tooltips="1" connect="1" arrows="1" fold="1" page="1" pageScale="1" pageWidth="2336" pageHeight="1654" math="0" shadow="0">
      <root>
        <mxCell id="0" />
        <mxCell id="1" parent="0" />
        <mxCell id="29xvRCrW0spApg71qZh9-54" value="" style="group" vertex="1" connectable="0" parent="1">
          <mxGeometry x="370" y="270" width="667" height="40" as="geometry" />
        </mxCell>
        <mxCell id="29xvRCrW0spApg71qZh9-42" value="" style="shape=table;startSize=0;container=1;collapsible=0;childLayout=tableLayout;fillColor=#dae8fc;strokeColor=#6c8ebf;" vertex="1" parent="29xvRCrW0spApg71qZh9-54">
          <mxGeometry width="240" height="40" as="geometry" />
        </mxCell>
        <mxCell id="29xvRCrW0spApg71qZh9-43" value="" style="shape=tableRow;horizontal=0;startSize=0;swimlaneHead=0;swimlaneBody=0;strokeColor=inherit;top=0;left=0;bottom=0;right=0;collapsible=0;dropTarget=0;fillColor=none;points=[[0,0.5],[1,0.5]];portConstraint=eastwest;" vertex="1" parent="29xvRCrW0spApg71qZh9-42">
          <mxGeometry width="240" height="40" as="geometry" />
        </mxCell>
        <mxCell id="29xvRCrW0spApg71qZh9-44" value="控制块" style="shape=partialRectangle;html=1;whiteSpace=wrap;connectable=0;strokeColor=inherit;overflow=hidden;fillColor=none;top=0;left=0;bottom=0;right=0;pointerEvents=1;" vertex="1" parent="29xvRCrW0spApg71qZh9-43">
          <mxGeometry width="60" height="40" as="geometry">
            <mxRectangle width="60" height="40" as="alternateBounds" />
          </mxGeometry>
        </mxCell>
        <mxCell id="29xvRCrW0spApg71qZh9-45" value="控制块" style="shape=partialRectangle;html=1;whiteSpace=wrap;connectable=0;strokeColor=inherit;overflow=hidden;fillColor=none;top=0;left=0;bottom=0;right=0;pointerEvents=1;" vertex="1" parent="29xvRCrW0spApg71qZh9-43">
          <mxGeometry x="60" width="60" height="40" as="geometry">
            <mxRectangle width="60" height="40" as="alternateBounds" />
          </mxGeometry>
        </mxCell>
        <mxCell id="29xvRCrW0spApg71qZh9-46" value="..." style="shape=partialRectangle;html=1;whiteSpace=wrap;connectable=0;strokeColor=inherit;overflow=hidden;fillColor=none;top=0;left=0;bottom=0;right=0;pointerEvents=1;" vertex="1" parent="29xvRCrW0spApg71qZh9-43">
          <mxGeometry x="120" width="60" height="40" as="geometry">
            <mxRectangle width="60" height="40" as="alternateBounds" />
          </mxGeometry>
        </mxCell>
        <mxCell id="29xvRCrW0spApg71qZh9-47" value="控制块" style="shape=partialRectangle;html=1;whiteSpace=wrap;connectable=0;strokeColor=inherit;overflow=hidden;fillColor=none;top=0;left=0;bottom=0;right=0;pointerEvents=1;" vertex="1" parent="29xvRCrW0spApg71qZh9-43">
          <mxGeometry x="180" width="60" height="40" as="geometry">
            <mxRectangle width="60" height="40" as="alternateBounds" />
          </mxGeometry>
        </mxCell>
        <mxCell id="29xvRCrW0spApg71qZh9-48" value="" style="shape=table;startSize=0;container=1;collapsible=0;childLayout=tableLayout;fillColor=#e1d5e7;strokeColor=#9673a6;" vertex="1" parent="29xvRCrW0spApg71qZh9-54">
          <mxGeometry x="240" width="427" height="40" as="geometry" />
        </mxCell>
        <mxCell id="29xvRCrW0spApg71qZh9-49" value="" style="shape=tableRow;horizontal=0;startSize=0;swimlaneHead=0;swimlaneBody=0;strokeColor=inherit;top=0;left=0;bottom=0;right=0;collapsible=0;dropTarget=0;fillColor=none;points=[[0,0.5],[1,0.5]];portConstraint=eastwest;" vertex="1" parent="29xvRCrW0spApg71qZh9-48">
          <mxGeometry width="427" height="40" as="geometry" />
        </mxCell>
        <mxCell id="29xvRCrW0spApg71qZh9-50" value="缓冲页" style="shape=partialRectangle;html=1;whiteSpace=wrap;connectable=0;strokeColor=inherit;overflow=hidden;fillColor=none;top=0;left=0;bottom=0;right=0;pointerEvents=1;" vertex="1" parent="29xvRCrW0spApg71qZh9-49">
          <mxGeometry width="107" height="40" as="geometry">
            <mxRectangle width="107" height="40" as="alternateBounds" />
          </mxGeometry>
        </mxCell>
        <mxCell id="29xvRCrW0spApg71qZh9-51" value="缓冲页" style="shape=partialRectangle;html=1;whiteSpace=wrap;connectable=0;strokeColor=inherit;overflow=hidden;fillColor=none;top=0;left=0;bottom=0;right=0;pointerEvents=1;" vertex="1" parent="29xvRCrW0spApg71qZh9-49">
          <mxGeometry x="107" width="107" height="40" as="geometry">
            <mxRectangle width="107" height="40" as="alternateBounds" />
          </mxGeometry>
        </mxCell>
        <mxCell id="29xvRCrW0spApg71qZh9-52" value="..." style="shape=partialRectangle;html=1;whiteSpace=wrap;connectable=0;strokeColor=inherit;overflow=hidden;fillColor=none;top=0;left=0;bottom=0;right=0;pointerEvents=1;" vertex="1" parent="29xvRCrW0spApg71qZh9-49">
          <mxGeometry x="214" width="106" height="40" as="geometry">
            <mxRectangle width="106" height="40" as="alternateBounds" />
          </mxGeometry>
        </mxCell>
        <mxCell id="29xvRCrW0spApg71qZh9-53" value="缓冲页" style="shape=partialRectangle;html=1;whiteSpace=wrap;connectable=0;strokeColor=inherit;overflow=hidden;fillColor=none;top=0;left=0;bottom=0;right=0;pointerEvents=1;" vertex="1" parent="29xvRCrW0spApg71qZh9-49">
          <mxGeometry x="320" width="107" height="40" as="geometry">
            <mxRectangle width="107" height="40" as="alternateBounds" />
          </mxGeometry>
        </mxCell>
        <mxCell id="29xvRCrW0spApg71qZh9-57" value="" style="curved=1;endArrow=classic;html=1;rounded=0;exitX=0.361;exitY=1.102;exitDx=0;exitDy=0;exitPerimeter=0;entryX=0.388;entryY=1.052;entryDx=0;entryDy=0;entryPerimeter=0;" edge="1" parent="29xvRCrW0spApg71qZh9-54" source="29xvRCrW0spApg71qZh9-43" target="29xvRCrW0spApg71qZh9-49">
          <mxGeometry width="50" height="50" relative="1" as="geometry">
            <mxPoint x="232" y="126" as="sourcePoint" />
            <mxPoint x="496.1510000000003" y="124" as="targetPoint" />
            <Array as="points">
              <mxPoint x="206" y="121" />
            </Array>
          </mxGeometry>
        </mxCell>
        <mxCell id="29xvRCrW0spApg71qZh9-58" value="" style="curved=1;endArrow=classic;html=1;rounded=0;entryX=0.894;entryY=-0.098;entryDx=0;entryDy=0;entryPerimeter=0;exitX=0.889;exitY=-0.054;exitDx=0;exitDy=0;exitPerimeter=0;" edge="1" parent="29xvRCrW0spApg71qZh9-54" source="29xvRCrW0spApg71qZh9-43" target="29xvRCrW0spApg71qZh9-49">
          <mxGeometry width="50" height="50" relative="1" as="geometry">
            <mxPoint x="419" y="-87" as="sourcePoint" />
            <mxPoint x="683.1510000000003" y="-89" as="targetPoint" />
            <Array as="points">
              <mxPoint x="461.3600000000001" y="-92.07999999999993" />
            </Array>
          </mxGeometry>
        </mxCell>
        <mxCell id="29xvRCrW0spApg71qZh9-55" value="" style="curved=1;endArrow=classic;html=1;rounded=0;exitX=0.136;exitY=0.002;exitDx=0;exitDy=0;exitPerimeter=0;entryX=0.133;entryY=-0.048;entryDx=0;entryDy=0;entryPerimeter=0;" edge="1" parent="1">
          <mxGeometry width="50" height="50" relative="1" as="geometry">
            <mxPoint x="409.6399999999999" y="269.9999999999999" as="sourcePoint" />
            <mxPoint x="673.7910000000002" y="267.9999999999999" as="targetPoint" />
            <Array as="points">
              <mxPoint x="485" y="212" />
            </Array>
          </mxGeometry>
        </mxCell>
      </root>
    </mxGraphModel>
  </diagram>
</mxfile>
